<svg width="4230" height="1024" viewBox="0 0 4230 1024" fill="none" xmlns="http://www.w3.org/2000/svg">
<rect width="4230" height="1024" fill="white"/>
<path d="M511.326 223L222.086 367.62L366.706 439.93L511.326 512.24M511.95 512.239L801.19 367.62L656.258 295.31L511.482 367.62" stroke="black" stroke-width="48.5774" stroke-linecap="round" stroke-linejoin="round"/>
<path d="M222.498 656.755L511.738 801.375L800.977 656.755" stroke="black" stroke-width="48.5774" stroke-linecap="round" stroke-linejoin="round"/>
<path d="M222.498 512.136L511.738 656.756L800.977 512.136" stroke="black" stroke-width="48.5774" stroke-linecap="round" stroke-linejoin="round"/>
<path d="M1352.91 427.877H1455.26C1442.24 333.668 1359.19 267.372 1251.49 267.372C1125.65 267.372 1028.65 358.092 1028.65 512.549C1028.65 663.285 1119.37 756.796 1253.59 756.796C1373.85 756.796 1459.68 680.731 1459.68 555.351V495.336H1260.33V571.169H1362.68C1361.29 630.253 1321.04 667.704 1254.05 667.704C1178.45 667.704 1130.76 611.179 1130.76 511.619C1130.76 412.524 1180.31 356.464 1253.12 356.464C1304.99 356.464 1340.12 383.215 1352.91 427.877ZM1507.28 750.283H1606.37V548.14C1606.37 504.175 1638.47 473.935 1682.21 473.935C1695.93 473.935 1714.77 476.261 1724.08 479.285V391.356C1715.24 389.263 1702.91 387.867 1692.91 387.867C1652.9 387.867 1620.1 411.129 1607.07 455.326H1603.35V392.985H1507.28V750.283ZM1840.76 757.029C1893.56 757.029 1927.76 734 1945.2 700.736H1948V750.283H2041.97V509.293C2041.97 424.155 1969.86 388.332 1890.31 388.332C1804.7 388.332 1748.41 429.273 1734.69 494.405L1826.34 501.849C1833.08 478.122 1854.25 460.676 1889.84 460.676C1923.57 460.676 1942.88 477.657 1942.88 506.967V508.362C1942.88 531.391 1918.45 534.415 1856.34 540.463C1785.63 546.977 1722.13 570.703 1722.13 650.491C1722.13 721.206 1772.6 757.029 1840.76 757.029ZM1869.14 688.64C1838.67 688.64 1816.8 674.45 1816.8 647.234C1816.8 619.32 1839.83 605.596 1874.72 600.711C1896.35 597.687 1931.71 592.569 1943.58 584.66V622.577C1943.58 660.028 1912.64 688.64 1869.14 688.64ZM2284.79 392.985H2213.84V369.025C2213.84 344.833 2223.61 330.644 2252.69 330.644C2264.55 330.644 2276.65 333.202 2284.56 335.761L2302.01 261.324C2289.68 257.602 2262.46 251.554 2231.99 251.554C2164.76 251.554 2114.75 289.47 2114.75 367.164V392.985H2064.27V467.422H2114.75V750.283H2213.84V467.422H2284.79V392.985ZM2320.99 750.283H2418.69V693.06H2423.11C2436.83 722.834 2466.84 756.099 2524.53 756.099C2605.94 756.099 2669.45 691.664 2669.45 572.099C2669.45 449.278 2603.15 388.332 2524.76 388.332C2464.98 388.332 2436.37 423.923 2423.11 453H2420.08V273.885H2320.99V750.283ZM2417.99 571.634C2417.99 507.897 2444.97 467.189 2493.12 467.189C2542.21 467.189 2568.26 509.758 2568.26 571.634C2568.26 633.975 2541.74 677.242 2493.12 677.242C2445.44 677.242 2417.99 635.371 2417.99 571.634ZM2811.25 757.029C2864.06 757.029 2898.25 734 2915.7 700.736H2918.49V750.283H3012.47V509.293C3012.47 424.155 2940.36 388.332 2860.8 388.332C2775.2 388.332 2718.9 429.273 2705.18 494.405L2796.83 501.849C2803.58 478.122 2824.74 460.676 2860.34 460.676C2894.06 460.676 2913.37 477.657 2913.37 506.967V508.362C2913.37 531.391 2888.95 534.415 2826.84 540.463C2756.12 546.977 2692.62 570.703 2692.62 650.491C2692.62 721.206 2743.1 757.029 2811.25 757.029ZM2839.63 688.64C2809.16 688.64 2787.29 674.45 2787.29 647.234C2787.29 619.32 2810.32 605.596 2845.22 600.711C2866.85 597.687 2902.21 592.569 2914.07 584.66V622.577C2914.07 660.028 2883.13 688.64 2839.63 688.64ZM3360.43 494.871C3351.59 429.04 3298.55 388.332 3208.3 388.332C3116.88 388.332 3056.63 430.669 3056.86 499.523C3056.63 553.025 3090.36 587.684 3160.14 601.641L3222.02 613.97C3253.19 620.251 3267.38 631.649 3267.85 649.56C3267.38 670.728 3244.35 685.849 3209.69 685.849C3174.33 685.849 3150.84 670.728 3144.79 641.651L3047.33 646.769C3056.63 715.158 3114.78 757.262 3209.46 757.262C3302.04 757.262 3368.34 710.041 3368.57 639.558C3368.34 587.917 3334.61 556.979 3265.29 542.79L3200.62 529.763C3167.36 522.552 3155.03 511.154 3155.26 493.94C3155.03 472.539 3179.22 458.582 3209.92 458.582C3244.35 458.582 3264.82 477.424 3269.71 500.453L3360.43 494.871ZM3567.6 757.262C3655.99 757.262 3715.54 714.228 3729.5 647.932L3637.85 641.884C3627.85 669.1 3602.26 683.29 3569.23 683.29C3519.68 683.29 3488.28 650.491 3488.28 597.222V596.989H3731.59V569.773C3731.59 448.347 3658.09 388.332 3563.64 388.332C3458.5 388.332 3390.34 463.002 3390.34 573.262C3390.34 686.546 3457.57 757.262 3567.6 757.262ZM3488.28 535.578C3490.37 494.871 3521.31 462.304 3565.27 462.304C3608.31 462.304 3638.08 493.01 3638.31 535.578H3488.28Z" fill="black"/>
</svg>
