<svg width="236" height="41" viewBox="0 0 236 41" fill="none" xmlns="http://www.w3.org/2000/svg">
<path fill-rule="evenodd" clip-rule="evenodd" d="M26.3279 4.69959C26.4052 4.8482 26.4513 5.01001 26.4636 5.17577C26.4758 5.34153 26.4541 5.50799 26.3995 5.66565C26.3449 5.82331 26.2586 5.96907 26.1454 6.0946C26.0323 6.22014 25.8946 6.32298 25.7401 6.39727L12.7542 12.6468L25.1684 18.6211L37.5803 12.6477L32.8379 10.3702L25.7477 13.7787C25.5929 13.8563 25.4236 13.9035 25.2496 13.9175C25.0757 13.9315 24.9006 13.912 24.7345 13.8602C24.5685 13.8084 24.4148 13.7252 24.2825 13.6156C24.1502 13.506 24.0419 13.3722 23.9639 13.2219C23.8859 13.0716 23.8398 12.9078 23.8283 12.7402C23.8168 12.5725 23.84 12.4043 23.8967 12.2454C23.9534 12.0866 24.0424 11.9401 24.1585 11.8147C24.2747 11.6892 24.4156 11.5873 24.5731 11.5148L32.2501 7.82389C32.4324 7.73627 32.6334 7.69067 32.8372 7.69067C33.0409 7.69067 33.2419 7.73627 33.4242 7.82389L41.1093 11.5144C41.3278 11.6194 41.5116 11.7809 41.6401 11.9807C41.7686 12.1806 41.8367 12.411 41.8368 12.646C41.8369 12.8811 41.7689 13.1115 41.6406 13.3115C41.5123 13.5115 41.3287 13.6731 41.1103 13.7783L25.7732 21.1592C25.5788 21.2528 25.3722 21.2955 25.1693 21.2932C24.9594 21.296 24.7518 21.2502 24.5641 21.1597L9.22651 13.7783C9.00819 13.6731 8.82459 13.5116 8.69628 13.3117C8.56796 13.1118 8.5 12.8815 8.5 12.6465C8.5 12.4116 8.56796 12.1813 8.69628 11.9814C8.82459 11.7815 9.00819 11.62 9.22651 11.5148L24.5641 4.13385C24.8759 3.98377 25.2369 3.95906 25.5677 4.06515C25.8985 4.17125 26.1719 4.39946 26.3279 4.69959V4.69959ZM8.65948 26.838C8.73667 26.6894 8.84352 26.5568 8.97394 26.4479C9.10435 26.339 9.25578 26.2559 9.41956 26.2033C9.58335 26.1507 9.75629 26.1297 9.92851 26.1415C10.1007 26.1532 10.2689 26.1975 10.4233 26.2718L25.1726 33.3704L39.922 26.2718C40.2339 26.1217 40.5949 26.097 40.9258 26.2032C41.2566 26.3093 41.5301 26.5376 41.686 26.8378C41.842 27.138 41.8676 27.4855 41.7573 27.804C41.6471 28.1224 41.4099 28.3856 41.098 28.5357L25.7604 35.9167C25.5779 36.0045 25.3767 36.0502 25.1726 36.0502C24.9686 36.0502 24.7673 36.0045 24.5848 35.9167L9.24727 28.5357C9.09281 28.4614 8.95507 28.3585 8.84194 28.2329C8.7288 28.1073 8.64247 27.9615 8.58789 27.8038C8.53331 27.6461 8.51153 27.4796 8.52382 27.3138C8.5361 27.148 8.5822 26.9862 8.65948 26.8376V26.838Z" fill="white"/>
<path fill-rule="evenodd" clip-rule="evenodd" d="M8.65834 19.4557C8.81431 19.1556 9.08776 18.9273 9.41853 18.8213C9.7493 18.7152 10.1103 18.7399 10.4222 18.8899L25.1715 25.9881L39.9208 18.8899C40.2321 18.7444 40.5904 18.7229 40.9181 18.8301C41.2457 18.9372 41.5163 19.1643 41.6711 19.4622C41.8258 19.7601 41.8523 20.1047 41.7449 20.4213C41.6374 20.7379 41.4045 21.0009 41.0969 21.1534L25.7593 28.5344C25.5767 28.6221 25.3755 28.6678 25.1715 28.6678C24.9675 28.6678 24.7662 28.6221 24.5837 28.5344L9.24612 21.1534C8.9343 21.0033 8.6972 20.7401 8.58697 20.4217C8.47674 20.1033 8.50241 19.7558 8.65834 19.4557V19.4557Z" fill="white"/>
<path d="M77.7655 15.1411C77.344 13.7163 76.5622 12.6024 75.4209 11.8012C74.2895 10.9897 72.8652 10.5834 71.1478 10.5834C68.7313 10.5834 66.7723 11.4448 65.2713 13.167C63.7797 14.8789 63.0345 17.3189 63.0345 20.4863C63.0345 23.664 63.7697 26.1181 65.24 27.85C66.7109 29.5823 68.7006 30.4488 71.2097 30.4488C73.4311 30.4488 75.1738 29.8939 76.439 28.7857C77.7142 27.6672 78.3721 26.1675 78.4134 24.287H71.626V19.4468H84.8453V23.277C84.8453 25.94 84.2593 28.2364 83.0873 30.1662C81.9147 32.0864 80.3005 33.5612 78.2436 34.5905C76.1973 35.6199 73.8421 36.1345 71.1791 36.1345C68.2172 36.1345 65.6156 35.5064 63.3735 34.2489C61.1321 32.9824 59.3841 31.1859 58.1289 28.86C56.885 26.5239 56.2625 23.7525 56.2625 20.5454C56.2625 17.2599 56.9157 14.4488 58.2215 12.1127C59.5279 9.77655 61.2966 7.99026 63.528 6.75325C65.7594 5.51624 68.2638 4.89716 71.04 4.89716C73.4258 4.89716 75.5853 5.33296 77.5185 6.20397C79.4522 7.07498 81.0357 8.28249 82.2696 9.82648C83.5035 11.3603 84.2646 13.1324 84.5523 15.1417H77.7655V15.1411ZM88.0017 35.7192V12.9139H94.3723V16.8933H94.6194C95.0509 15.4781 95.776 14.4091 96.7942 13.6862C97.8123 12.9542 98.9843 12.5876 100.311 12.5876C101.006 12.584 101.7 12.6588 102.378 12.8106V18.4226C102.069 18.3233 101.643 18.2444 101.098 18.1848C100.602 18.1189 100.102 18.0842 99.6016 18.081C98.1513 18.081 96.9481 18.5213 95.9918 19.4025C95.0456 20.2736 94.5728 21.4113 94.5728 22.8174V35.7192H88.0017ZM110.116 36.1499C107.853 36.1499 105.976 35.5807 104.485 34.4419C102.994 33.3042 102.249 31.6064 102.249 29.3497C102.249 27.6474 102.665 26.3111 103.498 25.3413C104.331 24.371 105.421 23.6634 106.768 23.218C108.126 22.7629 109.586 22.4661 111.149 22.3271C113.205 22.1291 114.676 21.9214 115.561 21.7035C116.445 21.4862 116.887 21.0112 116.887 20.2787V20.1896C116.887 19.2488 116.579 18.5213 115.961 18.0066C115.355 17.492 114.491 17.2349 113.37 17.2349C112.188 17.2349 111.246 17.4823 110.548 17.9771C109.848 18.4719 109.385 19.1007 109.159 19.8627L103.082 19.3878C103.534 17.3093 104.655 15.6609 106.444 14.4437C108.244 13.226 110.563 12.6177 113.401 12.6177C115.159 12.6177 116.804 12.8844 118.337 13.4195C119.87 13.9534 121.103 14.7898 122.039 15.9281C122.985 17.0568 123.458 18.527 123.458 20.3377V35.7192H117.227V32.5557H117.041C116.466 33.6151 115.602 34.481 114.45 35.1546C113.308 35.8173 111.864 36.1493 110.116 36.1493V36.1499ZM111.997 31.7846C113.437 31.7846 114.62 31.384 115.545 30.5816C116.471 29.7702 116.934 28.7658 116.934 27.5685V25.1484C116.676 25.3164 116.275 25.465 115.73 25.5933C115.196 25.7221 114.62 25.8361 114.002 25.9349C113.458 26.015 112.913 26.0942 112.368 26.1726C111.216 26.3309 110.285 26.6425 109.576 27.1078C108.876 27.5731 108.527 28.2511 108.527 29.142C108.527 30.013 108.85 30.6713 109.498 31.1167C110.157 31.5621 110.99 31.7846 111.997 31.7846V31.7846ZM139.56 12.9145V17.665H134.855V35.7192H128.284V17.665H124.937V12.9145H128.284V11.2666C128.284 8.78183 129.019 6.93142 130.49 5.71371C131.971 4.49655 133.827 3.8877 136.058 3.8877C137.066 3.8877 137.986 3.96146 138.819 4.11013C139.663 4.2588 140.29 4.39215 140.701 4.51131L139.544 9.26188C139.287 9.18244 138.968 9.10868 138.588 9.03945C138.207 8.97022 137.822 8.93561 137.431 8.93561C136.465 8.93561 135.791 9.1535 135.41 9.58873C135.04 10.0143 134.855 10.6129 134.855 11.3852V12.9145H139.56ZM141.96 35.7192V5.3131H148.531V16.7447H148.732C149.03 16.1211 149.452 15.4929 149.997 14.8591C150.542 14.2258 151.262 13.6958 152.156 13.2703C153.051 12.835 154.156 12.6177 155.473 12.6177C157.211 12.6177 158.805 13.0529 160.254 13.9239C161.704 14.7853 162.867 16.0864 163.74 17.8285C164.625 19.5609 165.067 21.7336 165.067 24.3466C165.067 26.8904 164.64 29.0382 163.787 30.7898C162.933 32.5319 161.781 33.8534 160.332 34.754C158.881 35.6448 157.257 36.0903 155.457 36.0903C154.182 36.0903 153.097 35.8871 152.202 35.4814C151.318 35.0757 150.593 34.5661 150.028 33.9522C149.472 33.3286 149.04 32.6998 148.732 32.0666H148.439V35.7192H141.96V35.7192ZM148.392 24.3165C148.392 26.3457 148.824 27.9788 149.688 29.2163C150.562 30.4437 151.791 31.0571 153.375 31.0571C154.989 31.0571 156.223 30.4335 157.077 29.1863C157.93 27.9294 158.357 26.3065 158.357 24.3165C158.357 22.3373 157.93 20.7337 157.077 19.5064C156.234 18.2694 155 17.6509 153.375 17.6509C151.781 17.6509 150.552 18.254 149.688 19.4616C148.824 20.6594 148.392 22.2777 148.392 24.3165V24.3165ZM174.47 36.1499C172.208 36.1499 170.332 35.5807 168.84 34.4419C167.349 33.3042 166.604 31.6064 166.604 29.3497C166.604 27.6474 167.02 26.3111 167.853 25.3413C168.686 24.371 169.776 23.6634 171.123 23.218C172.48 22.7629 173.941 22.4661 175.504 22.3271C177.56 22.1291 179.032 21.9214 179.916 21.7035C180.801 21.4862 181.243 21.0112 181.243 20.2787V20.1896C181.243 19.2488 180.934 18.5213 180.317 18.0066C179.71 17.492 178.846 17.2349 177.724 17.2349C176.542 17.2349 175.602 17.4823 174.902 17.9771C174.203 18.4719 173.74 19.1007 173.514 19.8627L167.437 19.3878C167.889 17.3093 169.01 15.6609 170.799 14.4437C172.599 13.226 174.917 12.6177 177.756 12.6177C179.514 12.6177 181.16 12.8844 182.693 13.4195C184.225 13.9534 185.458 14.7898 186.394 15.9281C187.341 17.0568 187.813 18.527 187.813 20.3377V35.7192H181.581V32.5557H181.397C180.82 33.6151 179.956 34.481 178.805 35.1546C177.664 35.8173 176.219 36.1493 174.47 36.1493V36.1499ZM176.353 31.7846C177.792 31.7846 178.975 31.384 179.9 30.5816C180.825 29.7702 181.288 28.7658 181.288 27.5685V25.1484C181.031 25.3164 180.631 25.465 180.084 25.5933C179.514 25.7292 178.938 25.8431 178.358 25.9349C177.75 26.024 177.206 26.1034 176.722 26.1726C175.571 26.3309 174.64 26.6425 173.931 27.1078C173.232 27.5731 172.881 28.2511 172.881 29.142C172.881 30.013 173.206 30.6713 173.853 31.1167C174.511 31.5621 175.344 31.7846 176.353 31.7846V31.7846ZM210.886 19.4173L204.871 19.7736C204.707 19.0416 204.29 18.4129 203.621 17.8881C202.953 17.3632 202.048 17.101 200.908 17.101C199.89 17.101 199.025 17.3093 198.315 17.7252C197.616 18.1303 197.271 18.6751 197.282 19.3577C197.271 19.9024 197.494 20.3621 197.946 20.7388C198.409 21.1145 199.189 21.4164 200.29 21.6445L204.578 22.4758C209.134 23.3763 211.417 25.4355 211.427 28.6517C211.427 30.1464 210.969 31.4583 210.054 32.5864C209.149 33.7144 207.906 34.5956 206.321 35.2289C204.738 35.8531 202.922 36.1646 200.876 36.1646C197.739 36.1646 195.241 35.5359 193.38 34.279C191.518 33.0119 190.433 31.2898 190.124 29.1125L196.588 28.7857C196.793 29.7163 197.266 30.4187 198.007 30.8937C198.758 31.3686 199.72 31.6064 200.892 31.6064C202.043 31.6064 202.969 31.3885 203.668 30.9533C204.377 30.5175 204.738 29.9631 204.748 29.2907C204.717 28.1615 203.704 27.4051 201.709 27.0187L197.606 26.2322C193.02 25.351 190.736 23.1783 190.757 19.7141C190.746 17.5169 191.657 15.7846 193.488 14.518C195.328 13.251 197.765 12.6171 200.798 12.6171C203.791 12.6171 206.146 13.226 207.864 14.4437C209.591 15.6609 210.599 17.3189 210.886 19.4173V19.4173ZM224.624 36.1646C222.198 36.1646 220.106 35.6891 218.348 34.7392C216.588 33.7791 215.237 32.4229 214.29 30.6707C213.343 28.9094 212.872 26.8257 212.872 24.4209C212.872 22.0746 213.343 20.0159 214.29 18.2444C215.237 16.4729 216.568 15.0917 218.285 14.1021C220.012 13.1125 222.039 12.6177 224.363 12.6177C226.45 12.6177 228.331 13.0433 230.008 13.8944C231.695 14.7456 233.032 16.032 234.019 17.7547C235.006 19.4667 235.5 21.6144 235.5 24.1979V25.9349H219.366V25.9496C219.366 27.6519 219.847 28.9933 220.815 29.9733C221.781 30.9533 223.088 31.443 224.733 31.443C225.833 31.443 226.785 31.2205 227.586 30.7751C228.389 30.3297 228.954 29.6714 229.284 28.8004L235.361 29.1863C234.898 31.3045 233.726 32.9972 231.845 34.2643C229.962 35.5308 227.555 36.1646 224.624 36.1646V36.1646ZM219.366 22.0156H229.315C229.304 20.6594 228.852 19.5416 227.957 18.6603C227.062 17.7791 225.901 17.3382 224.47 17.3382C223.01 17.3382 221.812 17.7939 220.877 18.7046C219.941 19.6153 219.436 20.719 219.366 22.0156V22.0156Z" fill="white"/>
</svg>
